<?xml version="1.0" encoding="utf-8"?>
<!-- Generator: Adobe Illustrator 17.1.0, SVG Export Plug-In . SVG Version: 6.00 Build 0)  -->
<!DOCTYPE svg PUBLIC "-//W3C//DTD SVG 1.1//EN" "http://www.w3.org/Graphics/SVG/1.1/DTD/svg11.dtd">
<svg version="1.1" id="Layer_1" xmlns="http://www.w3.org/2000/svg" xmlns:xlink="http://www.w3.org/1999/xlink" x="0px" y="0px"
	 width="1346px" height="60px" viewBox="0 0 1346 60" enable-background="new 0 0 1346 60" xml:space="preserve">
<circle fill="#2D4045" cx="31" cy="31" r="6"/>
<circle fill="#2D4045" cx="51" cy="31" r="6"/>
<circle fill="#2D4045" cx="71" cy="31" r="6"/>
<path fill="#202F33" d="M314,60l12-32.2c0.6-1.6,2.4-2.8,4-2.8h193c1.7,0,3.5,1.3,4,2.8L539,60H314z"/>
<g>
	<rect x="335" y="36" fill="#DDE1E2" width="16" height="6"/>
	<rect x="335" y="42" fill="#E8EBEB" width="16" height="6"/>
	<rect x="341" y="33" fill="#A7ABAC" width="4" height="1"/>
	<rect x="340" y="33" fill="#D0D4D4" width="1" height="1"/>
	<rect x="345" y="33" fill="#D0D4D4" width="1" height="1"/>
	<rect x="340" y="34" fill="#D9DDDD" width="1" height="1"/>
	<rect x="345" y="34" fill="#D9DDDD" width="1" height="1"/>
	<rect x="339" y="34" fill="#F1F3F3" width="1" height="1"/>
	<rect x="346" y="34" fill="#F1F3F3" width="1" height="1"/>
	<rect x="339" y="35" fill="#E9EBEB" width="1" height="1"/>
	<rect x="340" y="35" fill="#E9EBEB" width="1" height="1"/>
	<rect x="345" y="35" fill="#E9EBEB" width="1" height="1"/>
	<rect x="346" y="35" fill="#E9EBEB" width="1" height="1"/>
	<rect x="341" y="39" fill="#DAA7A7" width="1" height="1"/>
	<rect x="344" y="39" fill="#DAA7A7" width="1" height="1"/>
	<rect x="342" y="39" fill="#D87D77" width="2" height="1"/>
	<rect x="338" y="40" fill="#DFD6D5" width="1" height="1"/>
	<rect x="339" y="40" fill="#D77E7B" width="1" height="1"/>
	<rect x="340" y="40" fill="#D65544" width="1" height="1"/>
	<rect x="341" y="40" fill="#DA5F4E" width="1" height="1"/>
	<rect x="342" y="40" fill="#DB6753" width="1" height="1"/>
	<rect x="343" y="40" fill="#DD6857" width="1" height="1"/>
	<rect x="344" y="40" fill="#D9614C" width="1" height="1"/>
	<rect x="345" y="40" fill="#D85745" width="1" height="1"/>
	<rect x="346" y="40" fill="#D97F78" width="1" height="1"/>
	<rect x="337" y="41" fill="#DDD6D9" width="1" height="1"/>
	<rect x="338" y="41" fill="#D34F46" width="1" height="1"/>
	<rect x="339" y="41" fill="#D54235" width="1" height="1"/>
	<rect x="340" y="41" fill="#D5493C" width="1" height="1"/>
	<rect x="341" y="41" fill="#D65243" width="1" height="1"/>
	<rect x="342" y="41" fill="#D85749" width="1" height="1"/>
	<rect x="343" y="41" fill="#D8564A" width="1" height="1"/>
	<rect x="344" y="41" fill="#D7523F" width="1" height="1"/>
	<rect x="345" y="41" fill="#D44D3D" width="1" height="1"/>
	<rect x="346" y="41" fill="#D44235" width="1" height="1"/>
	<rect x="347" y="41" fill="#D44F4A" width="1" height="1"/>
	<rect x="348" y="41" fill="#D9D3D4" width="1" height="1"/>
	<rect x="337" y="42" fill="#AC7655" width="1" height="1"/>
	<rect x="338" y="42" fill="#D44634" width="1" height="1"/>
	<rect x="339" y="42" fill="#D54736" width="1" height="1"/>
	<rect x="340" y="42" fill="#D74738" width="1" height="1"/>
	<rect x="341" y="42" fill="#D74A3A" width="1" height="1"/>
	<rect x="342" y="42" fill="#D84B3A" width="1" height="1"/>
	<rect x="343" y="42" fill="#D84B3A" width="1" height="1"/>
	<rect x="344" y="42" fill="#D84B3A" width="1" height="1"/>
	<rect x="345" y="42" fill="#D7473A" width="1" height="1"/>
	<rect x="346" y="42" fill="#D54437" width="1" height="1"/>
	<rect x="347" y="42" fill="#D44234" width="1" height="1"/>
	<rect x="348" y="42" fill="#D85458" width="1" height="1"/>
	<rect x="336" y="43" fill="#C0D9C3" width="1" height="1"/>
	<rect x="337" y="43" fill="#59AC50" width="1" height="1"/>
	<rect x="338" y="43" fill="#C63D30" width="1" height="1"/>
	<rect x="339" y="43" fill="#D24232" width="1" height="1"/>
	<rect x="340" y="43" fill="#D44234" width="1" height="1"/>
	<rect x="341" y="43" fill="#D95E57" width="1" height="1"/>
	<rect x="342" y="43" fill="#D95E57" width="1" height="1"/>
	<rect x="343" y="43" fill="#DFAF8D" width="1" height="1"/>
	<rect x="344" y="43" fill="#E8A558" width="1" height="1"/>
	<rect x="345" y="43" fill="#E19539" width="1" height="1"/>
	<rect x="346" y="43" fill="#E2983A" width="1" height="1"/>
	<rect x="347" y="43" fill="#E2993A" width="1" height="1"/>
	<rect x="348" y="43" fill="#E29A3B" width="1" height="1"/>
	<rect x="349" y="43" fill="#E4C6AA" width="1" height="1"/>
	<rect x="336" y="44" fill="#7DBC78" width="1" height="1"/>
	<rect x="337" y="44" fill="#65B359" width="1" height="1"/>
	<rect x="338" y="44" fill="#87793F" width="1" height="1"/>
	<rect x="339" y="44" fill="#CA3F31" width="1" height="1"/>
	<rect x="340" y="44" fill="#D47781" width="1" height="1"/>
	<rect x="341" y="44" fill="#80AACD" width="1" height="1"/>
	<rect x="342" y="44" fill="#70A4CB" width="1" height="1"/>
	<rect x="343" y="44" fill="#80ADD0" width="1" height="1"/>
	<rect x="344" y="44" fill="#90B5D3" width="1" height="1"/>
	<rect x="345" y="44" fill="#EAD36D" width="1" height="1"/>
	<rect x="346" y="44" fill="#F2CA43" width="1" height="1"/>
	<rect x="347" y="44" fill="#F4D042" width="1" height="1"/>
	<rect x="348" y="44" fill="#F8D444" width="1" height="1"/>
	<rect x="349" y="44" fill="#F8DC45" width="1" height="1"/>
	<rect x="336" y="45" fill="#61B25F" width="1" height="1"/>
	<rect x="337" y="45" fill="#64B358" width="1" height="1"/>
	<rect x="338" y="45" fill="#57AB4B" width="1" height="1"/>
	<rect x="339" y="45" fill="#B83E2E" width="1" height="1"/>
	<rect x="340" y="45" fill="#8CB1D0" width="1" height="1"/>
	<rect x="341" y="45" fill="#5F90BD" width="1" height="1"/>
	<rect x="342" y="45" fill="#6699C3" width="1" height="1"/>
	<rect x="343" y="45" fill="#6F9CC4" width="1" height="1"/>
	<rect x="344" y="45" fill="#669AC4" width="1" height="1"/>
	<rect x="345" y="45" fill="#9BBED9" width="1" height="1"/>
	<rect x="346" y="45" fill="#F9D741" width="1" height="1"/>
	<rect x="347" y="45" fill="#F9D741" width="1" height="1"/>
	<rect x="348" y="45" fill="#F8D543" width="1" height="1"/>
	<rect x="349" y="45" fill="#FAD93D" width="1" height="1"/>
	<rect x="336" y="46" fill="#55AC4F" width="1" height="1"/>
	<rect x="337" y="46" fill="#64B357" width="1" height="1"/>
	<rect x="338" y="46" fill="#65B45A" width="1" height="1"/>
	<rect x="339" y="46" fill="#7E9163" width="1" height="1"/>
	<rect x="340" y="46" fill="#6596C1" width="1" height="1"/>
	<rect x="341" y="46" fill="#5483B4" width="1" height="1"/>
	<rect x="342" y="46" fill="#5A8BBA" width="1" height="1"/>
	<rect x="343" y="46" fill="#5D8BB9" width="1" height="1"/>
	<rect x="344" y="46" fill="#5B89B8" width="1" height="1"/>
	<rect x="345" y="46" fill="#6E9EC6" width="1" height="1"/>
	<rect x="346" y="46" fill="#F8DE45" width="1" height="1"/>
	<rect x="347" y="46" fill="#F8D543" width="1" height="1"/>
	<rect x="348" y="46" fill="#F8D543" width="1" height="1"/>
	<rect x="349" y="46" fill="#F8D542" width="1" height="1"/>
	<rect x="336" y="47" fill="#5DAE5C" width="1" height="1"/>
	<rect x="337" y="47" fill="#63B257" width="1" height="1"/>
	<rect x="338" y="47" fill="#64B359" width="1" height="1"/>
	<rect x="339" y="47" fill="#59AD4F" width="1" height="1"/>
	<rect x="340" y="47" fill="#73A4CA" width="1" height="1"/>
	<rect x="341" y="47" fill="#4F7BAF" width="1" height="1"/>
	<rect x="342" y="47" fill="#507CB0" width="1" height="1"/>
	<rect x="343" y="47" fill="#517DB0" width="1" height="1"/>
	<rect x="344" y="47" fill="#517DB0" width="1" height="1"/>
	<rect x="345" y="47" fill="#88B1D1" width="1" height="1"/>
	<rect x="346" y="47" fill="#F8D543" width="1" height="1"/>
	<rect x="347" y="47" fill="#F9D741" width="1" height="1"/>
	<rect x="348" y="47" fill="#F9D741" width="1" height="1"/>
	<rect x="349" y="47" fill="#F7D540" width="1" height="1"/>
</g>
<path fill="#2D4045" d="M100,60l12-32.2c0.6-1.6,2.4-2.8,4-2.8h193c1.7,0,3.5,1.3,4,2.8L325,60H100z"/>
<text transform="matrix(1 0 0 1 137.8335 46.161)" fill="#808080" font-family="'SourceSansPro-Regular'" font-size="13">Dewey. For Google Chrome™</text>
<text transform="matrix(1 0 0 1 357.142 46.1609)" fill="#808080" font-family="'SourceSansPro-Regular'" font-size="13">Chrome Web Store - Dewey</text>
<polygon fill="#F18260" points="132,48 126,44 120,48 120,35 132,35 "/>
</svg>
